<svg xmlns="http://www.w3.org/2000/svg" xmlns:xlink="http://www.w3.org/1999/xlink" width="500" zoomAndPan="magnify" viewBox="0 0 375 187.499995" height="250" preserveAspectRatio="xMidYMid meet" version="1.0"><defs><g/><clipPath id="dfe0f46a06"><path d="M 45 120 L 186 120 L 186 146 L 45 146 Z M 45 120 " clip-rule="nonzero"/></clipPath><clipPath id="7d80294a70"><path d="M 44.734375 133.320312 L 185.832031 116.269531 L 187.804688 132.605469 L 46.710938 149.65625 Z M 44.734375 133.320312 " clip-rule="nonzero"/></clipPath><clipPath id="95e169d056"><path d="M 44.734375 133.320312 L 185.832031 116.269531 L 187.804688 132.605469 L 46.710938 149.65625 Z M 44.734375 133.320312 " clip-rule="nonzero"/></clipPath></defs><g fill="#5e48ff" fill-opacity="1"><g transform="translate(61.544212, 125.801522)"><g><path d="M 16.015625 -0.746094 C 22.980469 -1.542969 28.0625 -6.917969 29.910156 -16.082031 C 32.21875 -26.746094 35.453125 -45.929688 36.816406 -56.941406 C 38.097656 -66.3125 36.246094 -71.4375 23.296875 -69.957031 C 3.390625 -67.679688 -7.652344 -54.296875 -6.042969 -40.191406 C -5.347656 -34.121094 -0.875 -29.023438 6.445312 -29.859375 C 15.105469 -30.851562 18.871094 -39.058594 16.816406 -42.804688 C 14.851562 -42.582031 13.199219 -44.382812 12.902344 -46.96875 C 12.207031 -53.042969 18.753906 -56.683594 26.804688 -55.886719 C 23.144531 -42.804688 20.632812 -33.925781 14.332031 -24.972656 C 9.191406 -17.695312 4.382812 -13.886719 5.035156 -8.171875 C 5.628906 -2.996094 10.121094 -0.0703125 16.015625 -0.746094 Z M 16.015625 -0.746094 "/></g></g></g><g fill="#5e48ff" fill-opacity="1"><g transform="translate(99.482148, 121.465015)"><g><path d="M 5.625 -0.644531 C 11.785156 -1.347656 12.382812 -6.390625 11.863281 -10.945312 L 11.40625 -14.960938 C 10.496094 -22.90625 14.113281 -30.828125 19.292969 -31.421875 C 21.34375 -31.65625 22.808594 -30.738281 23.042969 -28.683594 C 23.460938 -25.023438 20.394531 -18.613281 21.167969 -11.828125 C 21.742188 -6.828125 24.195312 -2.765625 29.820312 -3.410156 C 41.875 -4.785156 45.964844 -22.800781 48.261719 -28.039062 C 49.046875 -29.847656 45.171875 -32.117188 43.988281 -29.8125 C 42.507812 -26.929688 41.027344 -24.859375 38.347656 -24.554688 C 35.402344 -24.214844 33.898438 -25.492188 33.550781 -28.527344 C 33.042969 -32.992188 35.570312 -36.175781 35.03125 -40.90625 C 34.519531 -45.371094 31.503906 -48.824219 26.058594 -48.203125 C 22.128906 -47.753906 18.769531 -45.46875 15.835938 -41.878906 C 13.304688 -38.695312 11.398438 -39.5625 11 -43.042969 C 10.792969 -44.832031 10.074219 -46.375 7.664062 -46.101562 C 4.359375 -45.722656 1.007812 -35.480469 -0.742188 -24.699219 C -1.960938 -17.140625 -2.117188 -10.613281 -1.636719 -6.414062 C -1.210938 -2.664062 1.429688 -0.164062 5.625 -0.644531 Z M 5.625 -0.644531 "/></g></g></g><g fill="#5e48ff" fill-opacity="1"><g transform="translate(144.204285, 116.353038)"><g><path d="M 33.898438 -28.65625 C 32.417969 -25.773438 30.769531 -23.597656 28.101562 -23.203125 C 26.308594 -28.605469 20.757812 -35.207031 20.566406 -36.902344 C 20.15625 -40.472656 26.644531 -41.484375 26.226562 -44.332031 C 25.992188 -47.199219 22.945312 -50.109375 17.410156 -49.476562 C 9.730469 -48.597656 4.914062 -34.570312 -0.445312 -25.273438 L -0.742188 -24.699219 C -5.078125 -15.15625 -1.4375 0.0742188 14.273438 -1.722656 C 30.882812 -3.621094 36.261719 -21.421875 38.171875 -26.886719 C 38.78125 -28.671875 35.082031 -30.964844 33.898438 -28.65625 Z M 8.957031 -19.746094 C 6.011719 -19.410156 3.773438 -20.78125 3.53125 -22.925781 C 5.289062 -25.75 7.636719 -29.726562 9.492188 -33.285156 C 10.164062 -34.539062 10.875 -34.617188 11.632812 -33.53125 C 13.160156 -31.261719 14.128906 -29.113281 14.375 -26.96875 C 14.792969 -23.308594 12.886719 -20.195312 8.957031 -19.746094 Z M 8.957031 -19.746094 "/></g></g></g><g fill="#5e48ff" fill-opacity="1"><g transform="translate(178.750122, 112.404266)"><g><path d="M 9.015625 -1.03125 C 21.875 -2.5 26.789062 -20.429688 28.886719 -25.824219 C 29.585938 -27.621094 25.808594 -29.8125 24.613281 -27.597656 C 23.144531 -24.625 20.480469 -22.601562 16.910156 -22.195312 C 11.640625 -21.589844 8.425781 -25.203125 9.585938 -31.667969 C 10.597656 -37.84375 11.113281 -38.082031 19.417969 -39.03125 C 22.988281 -39.441406 23.121094 -47.777344 20.710938 -47.5 L 16.066406 -46.96875 C 14.371094 -46.777344 14.464844 -48.324219 15.476562 -51.335938 C 17.601562 -57.277344 16.125 -59.910156 12.824219 -59.535156 C 10.589844 -59.277344 8.71875 -58.25 7.167969 -52.828125 C 6.285156 -49.46875 3.835938 -45.574219 -1.34375 -44.980469 C -3.394531 -44.746094 -2.519531 -37.882812 2.65625 -38.472656 C 1.128906 -32.058594 -0.234375 -26.566406 -1.238281 -21.925781 C -3.953125 -10.039062 -0.980469 0.113281 9.015625 -1.03125 Z M 9.015625 -1.03125 "/></g></g></g><g fill="#5e48ff" fill-opacity="1"><g transform="translate(204.101601, 109.506458)"><g><path d="M 9.464844 -1.082031 C 15.804688 -1.804688 20.496094 -8.222656 23.242188 -15.863281 L 23.597656 -15.902344 C 23.375 -8.371094 26.605469 -3.042969 32.765625 -3.746094 C 42.675781 -4.878906 45.996094 -19.367188 49.421875 -28.171875 C 50.121094 -29.96875 46.242188 -32.238281 45.148438 -29.945312 C 43.6875 -26.882812 41.652344 -24.929688 38.617188 -24.585938 C 34.6875 -24.136719 33.296875 -27.59375 35.585938 -34.457031 C 36.960938 -39.863281 38.964844 -42.894531 38.578125 -46.289062 C 38.351562 -48.25 37.394531 -49.5 35.074219 -49.234375 C 30.878906 -48.753906 30.640625 -45.289062 27.695312 -44.953125 C 25.375 -44.6875 25.34375 -48.121094 18.199219 -47.304688 C 2.84375 -45.550781 -2.691406 -25.921875 -1.273438 -13.511719 C -0.363281 -5.566406 3.394531 -0.386719 9.464844 -1.082031 Z M 16.28125 -20.582031 C 13.511719 -20.265625 11.613281 -21.859375 11.265625 -24.894531 C 10.816406 -28.824219 13.261719 -33.535156 17.902344 -34.066406 C 20.761719 -34.390625 22.75 -32.808594 23.085938 -29.863281 C 23.515625 -26.113281 20.921875 -21.113281 16.28125 -20.582031 Z M 16.28125 -20.582031 "/></g></g></g><g fill="#5e48ff" fill-opacity="1"><g transform="translate(249.984181, 104.261836)"><g><path d="M 23.53125 -71.882812 C 13.710938 -70.761719 7.570312 -60.378906 3.480469 -45.53125 L -2.503906 -44.847656 C -4.644531 -44.601562 -7.800781 -37.367188 0.503906 -38.316406 L 1.753906 -38.460938 C 0.804688 -34.101562 -0.0234375 -29.484375 -0.742188 -24.699219 C -3.140625 -7.691406 -3.660156 0.417969 4.644531 -0.53125 C 13.390625 -1.53125 11.613281 -11.546875 11.597656 -20.410156 C 11.589844 -25.203125 11.6875 -32.269531 12.359375 -39.039062 C 17.492188 -39.265625 21.917969 -39.316406 21.648438 -39.289062 C 25.21875 -39.695312 25.351562 -48.03125 22.941406 -47.757812 L 13.566406 -46.683594 C 14.835938 -52.980469 17.09375 -57.761719 20.933594 -58.199219 C 23.078125 -58.445312 24.390625 -57.238281 24.726562 -54.292969 C 24.808594 -53.578125 25.417969 -53.015625 26.753906 -53.167969 C 33.71875 -53.964844 37.726562 -73.503906 23.53125 -71.882812 Z M 23.53125 -71.882812 "/></g></g></g><g fill="#5e48ff" fill-opacity="1"><g transform="translate(273.104003, 101.619118)"><g><path d="M 43.628906 -29.769531 C 41.46875 -25.722656 38.535156 -21.320312 35.859375 -21.011719 C 33.804688 -20.777344 31.914062 -22.28125 32.769531 -27.445312 C 34.777344 -36.808594 37.023438 -41.675781 36.59375 -45.425781 C 36.269531 -48.285156 34.71875 -49.191406 32.128906 -48.898438 C 27.574219 -48.375 24.636719 -41.617188 22.316406 -29.503906 C 21.367188 -25.144531 19.410156 -22.480469 15.480469 -22.03125 C 12.535156 -21.691406 11.558594 -23.121094 11.273438 -25.621094 C 10.667969 -30.886719 14.003906 -37.328125 13.339844 -43.132812 C 13.074219 -45.453125 12.128906 -46.609375 10.164062 -46.386719 C 5.164062 -45.816406 1.875 -38.203125 -0.742188 -24.699219 C -1.863281 -18.691406 -1.441406 -13.402344 -1.136719 -10.722656 C -0.359375 -3.9375 4.003906 -1.363281 8.824219 -1.914062 C 14.628906 -2.578125 18.585938 -6.738281 20.3125 -12.996094 C 20.949219 -15.328125 22.789062 -15.085938 22.832031 -13.101562 C 22.839844 -4.328125 17.070312 3.746094 9.222656 4.734375 C 3.699219 5.457031 0.0390625 2.710938 -0.917969 -1.703125 C -1.300781 -3.46875 -7.191406 1.183594 -6.148438 10.289062 C -5.171875 18.863281 0.789062 23.515625 10.253906 22.433594 C 20.164062 21.300781 25.539062 13.722656 29.148438 -5.320312 C 30.007812 -4.152344 31.160156 -3.5625 32.5 -3.714844 C 41.160156 -4.703125 43.96875 -16.511719 47.902344 -27.996094 C 48.652344 -30.164062 44.527344 -31.410156 43.628906 -29.769531 Z M 43.628906 -29.769531 "/></g></g></g><g clip-path="url(#dfe0f46a06)"><g clip-path="url(#7d80294a70)"><g clip-path="url(#95e169d056)"><path fill="#6758fe" d="M 84.679688 144.890625 C 71.789062 146.171875 57.398438 145.375 47.589844 135.867188 C 46.757812 135.203125 44.914062 133.296875 46.214844 133.601562 C 47.871094 134.339844 49.828125 136.039062 51.628906 136.25 C 58.746094 137.832031 66.164062 136.984375 73.34375 136.246094 C 95.429688 133.097656 117.117188 127.601562 139.1875 124.28125 C 150.589844 122.636719 162.09375 120.382812 173.625 120.414062 C 177.949219 121.871094 181.65625 125.136719 184.683594 128.484375 C 187.125 131.144531 183.820312 131.011719 181.835938 131.378906 C 177.753906 131.957031 173.648438 132.320312 169.554688 132.761719 C 141.074219 135.414062 113.082031 141.660156 84.679688 144.890625 Z M 84.679688 144.890625 " fill-opacity="1" fill-rule="nonzero"/></g></g></g><g fill="#5e48ff" fill-opacity="1"><g transform="translate(191.277859, 130.190426)"><g><path d="M 5.675781 -4.796875 C 5.429688 -4.3125 5.152344 -3.949219 4.707031 -3.882812 C 4.40625 -4.785156 3.476562 -5.890625 3.445312 -6.175781 C 3.375 -6.773438 4.460938 -6.941406 4.394531 -7.417969 C 4.351562 -7.898438 3.84375 -8.386719 2.917969 -8.28125 C 1.632812 -8.132812 0.824219 -5.785156 -0.0742188 -4.230469 L -0.121094 -4.132812 C -0.847656 -2.539062 -0.242188 0.0117188 2.390625 -0.289062 C 5.167969 -0.605469 6.070312 -3.582031 6.390625 -4.496094 C 6.492188 -4.796875 5.875 -5.179688 5.675781 -4.796875 Z M 1.5 -3.304688 C 1.007812 -3.25 0.632812 -3.480469 0.59375 -3.835938 C 0.886719 -4.308594 1.28125 -4.976562 1.589844 -5.570312 C 1.703125 -5.78125 1.824219 -5.792969 1.949219 -5.613281 C 2.203125 -5.230469 2.367188 -4.871094 2.40625 -4.511719 C 2.476562 -3.902344 2.160156 -3.378906 1.5 -3.304688 Z M 1.5 -3.304688 "/></g></g></g><g fill="#5e48ff" fill-opacity="1"><g transform="translate(197.061094, 129.53151)"><g><path d="M 1.585938 -0.179688 C 2.644531 -0.300781 3.429688 -1.375 3.890625 -2.652344 L 3.949219 -2.660156 C 3.914062 -1.398438 4.453125 -0.507812 5.484375 -0.625 C 7.144531 -0.8125 7.699219 -3.238281 8.273438 -4.710938 C 8.390625 -5.011719 7.742188 -5.394531 7.558594 -5.007812 C 7.316406 -4.496094 6.972656 -4.171875 6.464844 -4.113281 C 5.808594 -4.039062 5.574219 -4.617188 5.960938 -5.765625 C 6.1875 -6.671875 6.523438 -7.179688 6.460938 -7.746094 C 6.421875 -8.074219 6.261719 -8.285156 5.875 -8.238281 C 5.171875 -8.160156 5.132812 -7.578125 4.636719 -7.523438 C 4.25 -7.480469 4.246094 -8.054688 3.050781 -7.917969 C 0.480469 -7.625 -0.449219 -4.339844 -0.210938 -2.261719 C -0.0625 -0.933594 0.566406 -0.0664062 1.585938 -0.179688 Z M 2.726562 -3.445312 C 2.261719 -3.390625 1.945312 -3.660156 1.886719 -4.167969 C 1.8125 -4.824219 2.222656 -5.613281 3 -5.699219 C 3.476562 -5.753906 3.808594 -5.492188 3.867188 -4.996094 C 3.9375 -4.371094 3.503906 -3.53125 2.726562 -3.445312 Z M 2.726562 -3.445312 "/></g></g></g><g fill="#5e48ff" fill-opacity="1"><g transform="translate(204.742186, 128.65636)"><g><path d="M 2.082031 -8.429688 C 2.859375 -8.515625 3.4375 -8.886719 3.421875 -9.820312 C 3.390625 -10.757812 2.746094 -10.972656 1.984375 -10.882812 C 1.164062 -10.789062 0.527344 -10.398438 0.648438 -9.339844 C 0.738281 -8.546875 1.367188 -8.347656 2.082031 -8.429688 Z M 1.34375 -0.152344 C 3.273438 -0.371094 3.894531 -3.410156 4.28125 -4.273438 C 4.402344 -4.558594 3.765625 -4.941406 3.570312 -4.554688 C 3.320312 -4.074219 3.070312 -3.742188 2.621094 -3.691406 C 2.21875 -3.644531 1.921875 -3.867188 1.863281 -4.359375 C 1.773438 -5.167969 2.332031 -6.230469 2.230469 -7.140625 C 2.175781 -7.621094 1.957031 -7.792969 1.644531 -7.757812 C 0.792969 -7.660156 0.316406 -6.378906 -0.121094 -4.132812 C -0.265625 -3.390625 -0.324219 -2.566406 -0.242188 -1.863281 C -0.125 -0.820312 0.34375 -0.0390625 1.34375 -0.152344 Z M 1.34375 -0.152344 "/></g></g></g><g fill="#5e48ff" fill-opacity="1"><g transform="translate(208.418352, 128.237514)"><g><path d="M 3.941406 -12.03125 C 2.300781 -11.84375 1.269531 -10.105469 0.585938 -7.621094 L -0.417969 -7.507812 C -0.773438 -7.464844 -1.304688 -6.253906 0.0859375 -6.414062 L 0.296875 -6.4375 C 0.136719 -5.707031 -0.00390625 -4.933594 -0.121094 -4.132812 C -0.523438 -1.289062 -0.613281 0.0703125 0.777344 -0.0898438 C 2.242188 -0.253906 1.945312 -1.933594 1.941406 -3.414062 C 1.941406 -4.21875 1.957031 -5.402344 2.070312 -6.535156 C 2.929688 -6.570312 3.671875 -6.582031 3.625 -6.574219 C 4.222656 -6.644531 4.246094 -8.039062 3.84375 -7.992188 L 2.273438 -7.8125 C 2.488281 -8.867188 2.863281 -9.667969 3.507812 -9.742188 C 3.867188 -9.78125 4.085938 -9.578125 4.140625 -9.085938 C 4.15625 -8.96875 4.257812 -8.871094 4.480469 -8.898438 C 5.648438 -9.03125 6.320312 -12.300781 3.941406 -12.03125 Z M 3.941406 -12.03125 "/></g></g></g><g fill="#5e48ff" fill-opacity="1"><g transform="translate(212.288785, 127.796534)"><g/></g></g><g fill="#5e48ff" fill-opacity="1"><g transform="translate(217.668538, 127.183588)"><g><path d="M 3.734375 2.617188 C 4.226562 2.5625 4.679688 2.144531 4.78125 1.300781 C 4.953125 -0.125 5.101562 -1.203125 5.304688 -2.859375 C 5.703125 -6.023438 6.539062 -7.042969 6.460938 -7.746094 C 6.421875 -8.074219 6.261719 -8.285156 5.875 -8.238281 C 5.171875 -8.160156 5.132812 -7.578125 4.636719 -7.523438 C 4.25 -7.480469 4.246094 -8.054688 3.050781 -7.917969 C 0.480469 -7.625 -0.449219 -4.339844 -0.195312 -2.128906 C -0.0625 -0.933594 0.71875 -0.0820312 1.75 -0.199219 C 2.660156 -0.304688 3.253906 -1.082031 3.558594 -2.238281 C 3.648438 -2.535156 3.808594 -2.570312 3.839844 -2.316406 C 3.945312 -1.375 2.914062 -0.332031 2.726562 1.082031 C 2.585938 2.21875 3.152344 2.683594 3.734375 2.617188 Z M 2.757812 -3.449219 C 2.1875 -3.382812 1.9375 -3.734375 1.886719 -4.167969 C 1.8125 -4.824219 2.222656 -5.613281 2.953125 -5.695312 C 3.539062 -5.761719 3.816406 -5.429688 3.867188 -4.996094 C 3.9375 -4.371094 3.503906 -3.53125 2.757812 -3.449219 Z M 2.757812 -3.449219 "/></g></g></g><g fill="#5e48ff" fill-opacity="1"><g transform="translate(224.557611, 126.398677)"><g><path d="M 7.351562 -4.984375 C 7.101562 -4.503906 6.855469 -4.15625 6.40625 -4.105469 C 6.003906 -4.058594 5.613281 -4.273438 5.550781 -4.839844 C 5.464844 -5.589844 6.007812 -6.800781 5.914062 -7.636719 C 5.863281 -8.070312 5.679688 -8.21875 5.382812 -8.183594 C 4.617188 -8.097656 4.125 -6.964844 3.738281 -4.9375 L 3.730469 -4.875 C 3.558594 -4.101562 3.128906 -3.746094 2.59375 -3.6875 C 2.097656 -3.628906 1.9375 -3.871094 1.886719 -4.289062 C 1.789062 -5.167969 2.347656 -6.246094 2.234375 -7.21875 C 2.191406 -7.609375 2.03125 -7.800781 1.703125 -7.765625 C 0.867188 -7.667969 0.316406 -6.394531 -0.121094 -4.132812 C -0.3125 -3.128906 -0.242188 -2.242188 -0.1875 -1.796875 C -0.0507812 -0.570312 0.519531 -0.0742188 1.328125 -0.167969 C 2.496094 -0.300781 3.109375 -1.550781 3.480469 -2.667969 C 3.476562 -2.441406 3.484375 -2.242188 3.507812 -2.050781 C 3.625 -0.988281 4.09375 -0.464844 4.976562 -0.566406 C 6.996094 -0.796875 7.679688 -3.8125 8.066406 -4.6875 C 8.195312 -4.992188 7.546875 -5.371094 7.351562 -4.984375 Z M 7.351562 -4.984375 "/></g></g></g><g fill="#5e48ff" fill-opacity="1"><g transform="translate(232.029495, 125.547364)"><g><path d="M 5.78125 -4.808594 C 5.53125 -4.324219 5.285156 -3.976562 4.835938 -3.925781 C 4.164062 -3.851562 3.875 -4.136719 3.828125 -4.554688 C 3.71875 -5.480469 4.292969 -6.179688 4.195312 -7.035156 C 4.101562 -7.839844 2.558594 -8.632812 1.152344 -8.472656 C 0.347656 -8.382812 -0.09375 -7.589844 -0.0234375 -6.976562 C 0.0390625 -6.4375 0.253906 -6.265625 0.566406 -6.195312 C 0.390625 -5.480469 0.113281 -4.570312 -0.121094 -4.132812 C -0.285156 -3.828125 0.441406 -3.425781 0.59375 -3.835938 C 0.773438 -4.359375 1.152344 -5.429688 1.355469 -6.058594 C 1.976562 -5.902344 2.214844 -5.550781 2.230469 -5.402344 C 2.3125 -4.683594 1.425781 -3.160156 1.585938 -1.769531 C 1.671875 -1.007812 2.183594 -0.25 3.40625 -0.386719 C 5.425781 -0.617188 6.109375 -3.632812 6.496094 -4.511719 C 6.628906 -4.8125 5.980469 -5.191406 5.78125 -4.808594 Z M 5.78125 -4.808594 "/></g></g></g><g fill="#5e48ff" fill-opacity="1"><g transform="translate(237.932277, 124.874826)"><g><path d="M 2.808594 -0.320312 C 4.542969 -0.519531 5.980469 -1.984375 7.019531 -4.570312 C 7.152344 -4.871094 6.503906 -5.253906 6.304688 -4.867188 C 5.75 -3.757812 4.597656 -3.097656 3.582031 -2.980469 C 2.730469 -2.882812 1.996094 -3.074219 1.9375 -3.597656 C 1.914062 -3.792969 2.058594 -3.851562 2.171875 -3.804688 C 2.535156 -3.648438 2.945312 -3.652344 3.363281 -3.699219 C 4.828125 -3.867188 5.628906 -5.199219 5.503906 -6.289062 C 5.394531 -7.277344 4.679688 -8.101562 3.289062 -7.945312 C -1 -7.457031 -1.390625 0.160156 2.808594 -0.320312 Z M 2.847656 -4.777344 C 2.367188 -4.722656 2.113281 -4.980469 2.074219 -5.308594 C 2.027344 -5.710938 2.339844 -6.1875 2.921875 -6.253906 C 3.382812 -6.304688 3.640625 -6.046875 3.679688 -5.71875 C 3.722656 -5.34375 3.429688 -4.84375 2.847656 -4.777344 Z M 2.847656 -4.777344 "/></g></g></g><g fill="#5e48ff" fill-opacity="1"><g transform="translate(244.358097, 124.142697)"><g><path d="M 5.675781 -4.796875 C 5.429688 -4.3125 5.152344 -3.949219 4.707031 -3.882812 C 4.40625 -4.785156 3.476562 -5.890625 3.445312 -6.175781 C 3.375 -6.773438 4.460938 -6.941406 4.394531 -7.417969 C 4.351562 -7.898438 3.84375 -8.386719 2.917969 -8.28125 C 1.632812 -8.132812 0.824219 -5.785156 -0.0742188 -4.230469 L -0.121094 -4.132812 C -0.847656 -2.539062 -0.242188 0.0117188 2.390625 -0.289062 C 5.167969 -0.605469 6.070312 -3.582031 6.390625 -4.496094 C 6.492188 -4.796875 5.875 -5.179688 5.675781 -4.796875 Z M 1.5 -3.304688 C 1.007812 -3.25 0.632812 -3.480469 0.59375 -3.835938 C 0.886719 -4.308594 1.28125 -4.976562 1.589844 -5.570312 C 1.703125 -5.78125 1.824219 -5.792969 1.949219 -5.613281 C 2.203125 -5.230469 2.367188 -4.871094 2.40625 -4.511719 C 2.476562 -3.902344 2.160156 -3.378906 1.5 -3.304688 Z M 1.5 -3.304688 "/></g></g></g><g fill="#5e48ff" fill-opacity="1"><g transform="translate(250.141332, 123.48378)"><g><path d="M 1.015625 -0.117188 C 2.003906 -0.226562 2.101562 -1.074219 2.015625 -1.835938 L 1.941406 -2.507812 C 1.789062 -3.835938 2.394531 -5.164062 3.261719 -5.261719 C 3.605469 -5.300781 3.847656 -5.148438 3.886719 -4.804688 C 3.957031 -4.191406 3.371094 -3.109375 3.5 -1.972656 C 3.59375 -1.136719 4.003906 -0.457031 4.992188 -0.570312 C 7.007812 -0.796875 7.695312 -3.8125 8.078125 -4.691406 C 8.210938 -4.992188 7.5625 -5.375 7.363281 -4.988281 C 7.117188 -4.503906 6.867188 -4.160156 6.421875 -4.109375 C 5.941406 -4.054688 5.707031 -4.269531 5.648438 -4.777344 C 5.5625 -5.523438 5.988281 -6.054688 5.894531 -6.847656 C 5.8125 -7.597656 5.304688 -8.175781 4.394531 -8.070312 C 3.738281 -7.996094 3.175781 -7.613281 2.683594 -7.011719 C 2.390625 -6.644531 2.144531 -6.679688 2.242188 -7.308594 C 2.339844 -8.03125 2.769531 -8.898438 3.0625 -9.8125 C 3.386719 -10.816406 3.15625 -11.246094 2.542969 -11.175781 C 1.332031 -11.035156 0.90625 -8.671875 -0.109375 -4.136719 C -0.308594 -3.25 -0.410156 -2.285156 -0.324219 -1.523438 C -0.222656 -0.640625 0.148438 -0.015625 1.015625 -0.117188 Z M 1.015625 -0.117188 "/></g></g></g><g fill="#5e48ff" fill-opacity="1"><g transform="translate(257.628154, 122.630764)"><g><path d="M 2.082031 -8.429688 C 2.859375 -8.515625 3.4375 -8.886719 3.421875 -9.820312 C 3.390625 -10.757812 2.746094 -10.972656 1.984375 -10.882812 C 1.164062 -10.789062 0.527344 -10.398438 0.648438 -9.339844 C 0.738281 -8.546875 1.367188 -8.347656 2.082031 -8.429688 Z M 1.34375 -0.152344 C 3.273438 -0.371094 3.894531 -3.410156 4.28125 -4.273438 C 4.402344 -4.558594 3.765625 -4.941406 3.570312 -4.554688 C 3.320312 -4.074219 3.070312 -3.742188 2.621094 -3.691406 C 2.21875 -3.644531 1.921875 -3.867188 1.863281 -4.359375 C 1.773438 -5.167969 2.332031 -6.230469 2.230469 -7.140625 C 2.175781 -7.621094 1.957031 -7.792969 1.644531 -7.757812 C 0.792969 -7.660156 0.316406 -6.378906 -0.121094 -4.132812 C -0.265625 -3.390625 -0.324219 -2.566406 -0.242188 -1.863281 C -0.125 -0.820312 0.34375 -0.0390625 1.34375 -0.152344 Z M 1.34375 -0.152344 "/></g></g></g></svg>